<?xml version="1.0" encoding="utf-8"?>
<!-- Generator: Adobe Illustrator 26.4.1, SVG Export Plug-In . SVG Version: 6.00 Build 0)  -->
<svg version="1.1" id="Layer_1" xmlns="http://www.w3.org/2000/svg" xmlns:xlink="http://www.w3.org/1999/xlink" x="0px" y="0px"
	 viewBox="0 0 1295.8 1108.4" style="enable-background:new 0 0 1295.8 1108.4;" xml:space="preserve">
<style type="text/css">
	.st0{fill:none;stroke:#E46552;stroke-width:3;stroke-linecap:round;stroke-opacity:0.9961;}
	.st1{fill:none;stroke:#DD3F37;stroke-width:2;stroke-linecap:round;}
	.st2{fill:none;stroke:#72A7B9;stroke-width:11;stroke-linecap:round;}
	.st3{fill:none;stroke:#D7191C;stroke-linecap:round;}
	.st4{fill:none;stroke:#F8D8A3;stroke-width:6;stroke-linecap:round;}
	.st5{fill:none;stroke:#EB8C6D;stroke-width:4;stroke-linecap:round;}
	.st6{fill:none;stroke:#F1B288;stroke-width:5;stroke-linecap:round;}
	.st7{fill:none;stroke:#2C7BB6;stroke-width:13;stroke-linecap:round;}
	.st8{fill:none;stroke:#4F91B7;stroke-width:12;stroke-linecap:round;}
	.st9{fill:#1A1A1A;}
	.st10{font-family:'AppleMyungjo';}
	.st11{font-size:48px;}
	.st12{font-size:27px;}
	.st13{font-size:24px;}
	.st14{font-size:45px;}
	.st15{font-size:30px;}
	.st16{font-size:26px;}
	.st17{enable-background:new    ;}
	.st18{font-size:21px;}
	.st19{font-family:'MyriadPro-Regular';}
	.st20{font-size:15px;}
	.st21{font-size:20px;}
	.st22{font-size:12px;}
	.st23{font-size:18px;}
	.st24{font-size:32px;}
	.st25{font-size:17px;}
	.st26{font-size:13px;}
	.st27{font-size:14px;}
	.st28{font-size:36px;}
	.st29{font-size:33px;}
	.st30{font-size:19px;}
	.st31{font-size:16px;}
</style>
<g id="edges">
	<path class="st0" d="M545.3,271.2c-43.1,26.4-98.1,23.3-138-7.9"/>
	<path class="st1" d="M552.1,272.7c64.5,106.2,53.3,241.9-27.8,336.1"/>
	<path class="st2" d="M553.7,271.1c33,22,49.3,61.8,41.3,100.6"/>
	<path class="st1" d="M549.1,273.5c-5,52.1-41.8,95.6-92.4,109"/>
	<path class="st1" d="M550.5,273.4c26.9,136-37.2,273.8-158.4,341"/>
	<path class="st0" d="M546.8,272.7c-48.9,75.4-140.4,111.2-227.4,89.1"/>
	<path class="st3" d="M550.2,273.4c12.5,92.1-35.3,182-118.7,223.1"/>
	<path class="st3" d="M548.3,273.3c-29.5,116.5-130.6,200.8-250.5,208.9"/>
	<path class="st3" d="M552.8,272.2c54.8,61.9,64.1,151.9,23.2,223.7"/>
	<path class="st1" d="M554.5,268.2c71.5-3,137.1,39.4,163.7,105.8"/>
	<path class="st1" d="M551.6,264C593,178.8,684.1,129.5,778,141.6"/>
	<path class="st1" d="M552.8,264.8C639.5,172.1,776,145.6,891,199.2"/>
	<path class="st3" d="M550.8,263.7C588.9,129.1,709.7,34.7,849.4,30.2"/>
	<path class="st1" d="M549.2,263.5c-4-109,62.3-208.3,164.6-246.3"/>
	<path class="st3" d="M547.1,264.1c-41-78.9-27-175.2,34.7-239.3"/>
	<path class="st3" d="M545.5,265.4c-32.4-25.9-45.5-69-33.1-108.5"/>
	<path class="st3" d="M553.8,266c85.8-47.5,192.5-34.9,264.8,31.4"/>
	<path class="st3" d="M553.1,265.1c38.1-34.3,93.5-41.3,138.9-17.5"/>
	<path class="st3" d="M549.5,263.5c1-57.6,37.9-108.4,92.3-127.1"/>
	<path class="st1" d="M407.4,263.1c109.5,77.6,156.2,217.1,115.5,345"/>
	<path class="st0" d="M408.1,260.5c78.8-5.9,152.7,38.8,183.9,111.5"/>
	<path class="st3" d="M407.5,262.9c38.3,25.4,56.8,71.9,46.3,116.7"/>
	<path class="st3" d="M406.4,264.1c71.4,107.3,65.2,248.5-15.3,349.2"/>
	<path class="st1" d="M403.9,264.7c-5.5,46.3-39.2,84.3-84.5,95.2"/>
	<path class="st3" d="M406.9,263.7c56.7,64,66,157.2,23.2,231.2"/>
	<path class="st3" d="M404.9,264.7c14.5,87.7-28.9,174.7-107.5,216.1"/>
	<path class="st3" d="M408,262.1c100.1,33.6,167.2,127.8,166.3,233.4"/>
	<path class="st3" d="M402.5,257.4C369.7,189.6,384,108.5,437.9,56"/>
	<path class="st3" d="M408,259.8c117-32.9,242,13.4,309.3,114.6"/>
	<path class="st1" d="M520.6,608.1c-28.3-83.2-0.3-175.3,69.5-228.7"/>
	<path class="st3" d="M518.8,609.4c-67.9-51.9-94.9-141.5-67.2-222.3"/>
	<path class="st1" d="M518.8,613.9c-37.2,27.9-87.9,29.7-127,4.4"/>
	<path class="st3" d="M518.2,610.7C404.5,581.3,322.7,482,315.7,364.8"/>
	<path class="st3" d="M518.2,610.7c-49.9-13.7-85.8-57.4-89.7-109"/>
	<path class="st3" d="M518.1,612.1c-93.7,10.3-183.4-40.6-222.4-126.4"/>
	<path class="st3" d="M521.1,607.9c-7.4-42.6,12.5-85.4,50-107.1"/>
	<path class="st3" d="M524.4,614.3c57.5,61,69.4,152.1,29.5,225.8"/>
	<path class="st1" d="M590.1,379.5c-39,29.8-92.4,32.2-134,6"/>
	<path class="st1" d="M593.6,381.3c-9.4,113.3-90.6,207.7-201.2,234"/>
	<path class="st0" d="M589.9,379.1c-84.4,53.7-193.7,47.3-271.3-15.8"/>
	<path class="st1" d="M592.5,381.1c-23.1,69.2-87.6,116.2-160.6,117"/>
	<path class="st3" d="M591.2,380.5c-65.3,94.2-183.7,135.8-293.6,103"/>
	<path class="st3" d="M596.1,380.8c18.1,38.8,10.4,84.8-19.3,115.7"/>
	<path class="st1" d="M597.9,373.7c36-23.8,83-23.1,118.2,1.8"/>
	<path class="st3" d="M594.1,371.6c5.6-107.9,79.8-200,184-228.5"/>
	<path class="st3" d="M595.9,372c50.8-114.9,169.8-184,294.7-171.4"/>
	<path class="st3" d="M590.9,372.6c-77.9-101.7-81.5-242-8.7-347.5"/>
	<path class="st3" d="M589.9,373.7c-69.6-48.2-100.7-135.4-77.4-216.8"/>
	<path class="st3" d="M596.7,372.5c50.3-69.3,139.2-98.9,221-73.6"/>
	<path class="st3" d="M594.2,371.6c3.8-56.9,42.8-105.3,97.5-121.2"/>
	<path class="st3" d="M592.5,371.8C551.9,240,601.1,97.1,714.2,18.1"/>
	<path class="st3" d="M591.9,372c-35.1-80.9-14.8-175.2,50.6-234.3"/>
	<path class="st3" d="M456,381.1c76.5-57.6,181.3-59.9,260.1-5.5"/>
	<path class="st3" d="M454.5,387c15.5,37.6,6.1,80.9-23.6,108.7"/>
	<path class="st1" d="M454.3,387.1c30.1,81.2,4.9,172.6-62.6,226.8"/>
	<path class="st4" d="M449.4,385.2c-43.9,21-96.3,12.5-131.2-21.5"/>
	<path class="st1" d="M452.6,387.3c-8.5,108-85.9,198.1-191.3,222.9"/>
	<path class="st1" d="M451.5,387c-25.6,61.4-87.3,99.8-153.7,95.6"/>
	<path class="st3" d="M456.8,383.9c58.7,8.6,105.5,53.3,116.8,111.5"/>
	<path class="st1" d="M387.6,612.6c-12.2-41.7,2.8-86.5,37.6-112.5"/>
	<path class="st1" d="M385.8,613.9c-75.2-58.9-104.1-159.5-71.7-249.3"/>
	<path class="st3" d="M385.2,615c-54.7-19.3-91.2-71-91.1-129"/>
	<path class="st3" d="M390.1,612.7c29.4-72.8,102.1-118.7,180.5-113.9"/>
	<path class="st3" d="M392.3,617.3c95.9,31.6,160.5,121.4,160,222.4"/>
	<path class="st3" d="M319.3,361.8c60.7,16.6,104.3,69.8,108.7,132.7"/>
	<path class="st1" d="M317.1,364.5c36.1,85.1,13.4,183.8-56.3,244.6"/>
	<path class="st3" d="M317.2,364.4c17.9,39,9.8,85-20.4,115.5"/>
	<path class="st3" d="M319.4,360.2c104.8-14.4,207,40.3,253.2,135.6"/>
	<path class="st1" d="M313.4,357.3c-39.3-69.4-29.6-156.3,24-215.4"/>
	<path class="st3" d="M314,364.5c-25.5,63.3-88.6,103.2-156.7,99.2"/>
	<path class="st3" d="M425.1,499.8c-41.6,22.5-92.9,16.5-128.2-15"/>
	<path class="st3" d="M431.1,496c42.2-29.3,98.3-29,140.1,0.9"/>
	<path class="st3" d="M297.2,480.4c85.3-54.5,196-47.9,274.2,16.3"/>
	<path class="st3" d="M723.3,375.4c63.1-47.8,149.6-50.1,215.2-5.7"/>
	<path class="st3" d="M718.1,374c-31.1-81.6-6.7-173.9,60.7-229.4"/>
	<path class="st3" d="M720.4,373.7c14-87.9,82.5-157,170.2-171.9"/>
	<path class="st3" d="M717.1,374.5C639.3,269,638.5,125.4,715.1,19"/>
	<path class="st3" d="M673.6,617.5"/>
	<path class="st3" d="M721.6,382.1"/>
	<path class="st3" d="M725.8,509.9"/>
	<path class="st3" d="M722.5,381.6"/>
	<path class="st3" d="M716,375.7c-115.6-75.4-169.2-216.9-132.6-350"/>
	<path class="st3" d="M715.4,377.2c-107.7-22.1-189-110.9-201.4-220.2"/>
	<path class="st3" d="M721,373.8c13.7-42.2,52.2-71.5,96.5-73.6"/>
	<path class="st3" d="M716.5,375c-32.3-32-41.3-80.7-22.7-122.1"/>
	<path class="st3" d="M716.2,375.4c-72.4-55.2-101.5-150.5-72.1-236.7"/>
	<path class="st0" d="M785.7,141.6c43.8-5.6,86.5,16.5,107.3,55.5"/>
	<path class="st5" d="M778.4,140.4c-43.8-23.3-68.4-71.5-61.6-120.6"/>
	<path class="st3" d="M781.6,138.3c-2.2-46.5,25.1-89.3,68-107"/>
	<path class="st3" d="M778,142.5c-82.5,6.4-159.9-40.7-192.2-116.9"/>
	<path class="st3" d="M778.8,144.6c-75.9,59.9-181.6,64.2-262.2,10.9"/>
	<path class="st3" d="M784.9,144.6c43.5,37.5,58.8,98.3,38,151.9"/>
	<path class="st3" d="M781.7,146c-3.3,48-36.2,88.9-82.5,102.3"/>
	<path class="st3" d="M778.6,144.3c-40.6,25.3-92.6,22.7-130.4-6.7"/>
	<path class="st3" d="M898.1,197.8c45.5-47,115.8-60,175.2-32.3"/>
	<path class="st0" d="M890.6,200.3c-90.4-16.8-159.9-89.5-172.7-180.6"/>
	<path class="st3" d="M894.9,196.6c0-47,29.4-89,73.6-105.1"/>
	<path class="st1" d="M899.1,202.8c135.6,58.3,217.8,197.9,203,344.8"/>
	<path class="st3" d="M891.6,198.2c-47.3-40.9-63.5-107.3-40.4-165.4"/>
	<path class="st3" d="M890.6,201.6c-129,13.7-252.1-57.4-304.7-176"/>
	<path class="st3" d="M891.1,203.3c-121.9,67.4-273.5,48.3-374.9-47.3"/>
	<path class="st3" d="M894.9,205.5c-1.6,42.6-29.4,79.8-69.8,93.4"/>
	<path class="st3" d="M892.1,204.5c-47.9,55.1-125.4,73.7-193.1,46.4"/>
	<path class="st3" d="M890.9,202.7c-86.5,33.1-184.5,7-243.2-64.6"/>
	<path class="st3" d="M849.8,31.6C808.2,55,756.4,49.8,720.3,18.5"/>
	<path class="st3" d="M714.4,18.3c-36.9,28.3-87.5,30.7-126.9,5.8"/>
	<path class="st3" d="M716.1,19.6c-30.5,82.8-110.6,136.8-198.8,134"/>
	<path class="st3" d="M720.7,18C811.3,79,852.4,191.3,822.5,296.4"/>
	<path class="st3" d="M719.4,19.2c42.4,72.5,33.8,164-21.4,227.3"/>
	<path class="st3" d="M717.8,19.8c3.2,48.7-24.3,94.3-69,114"/>
	<path class="st3" d="M587.7,23.8C667.9,66.6,711.6,156,696.1,245.6"/>
	<path class="st3" d="M584.9,25.8c6.2,52.1-21,102.5-67.9,125.9"/>
	<path class="st3" d="M588,22.9c128.9,30.7,223.2,141.2,233.1,273.3"/>
	<path class="st3" d="M587.8,23.7c40,20.2,63.2,63.2,58.1,107.8"/>
	<path class="st3" d="M517.3,152.8c72.7-9.9,143.6,27.5,176.5,93.1"/>
	<path class="st3" d="M517.2,152.6c121.4-22.8,243.6,35.4,302.4,144"/>
	<path class="st3" d="M516.3,150.8c34.1-31.6,84.3-38.5,125.7-17.3"/>
	<path class="st3" d="M817.7,301c-46.2,10.7-94.2-8.7-120.1-48.4"/>
	<path class="st3" d="M817.6,299.6c-85.8-11.1-154.9-75.8-171.6-160.7"/>
	<path class="st3" d="M824.2,302.9c40.3,42,49.4,105,22.7,156.7"/>
	<path class="st3" d="M699.3,248.7c97.6-16.3,194.6,32.1,240.4,119.9"/>
	<path class="st3" d="M692.1,247.4c-37-22.7-55.9-66-47.6-108.5"/>
	<path class="st3" d="M555.6,842.6c89.5-11.1,176,36.8,214.2,118.5"/>
	<path class="st3" d="M555.2,844.7"/>
	<path class="st3" d="M499.6,951.4"/>
	<path class="st3" d="M552.8,846.4"/>
	<path class="st3" d="M555.4,844.2c50.3,19.1,83,68,81.4,121.9"/>
	<path class="st1" d="M941,368.3c-3.9-88.3,49.4-169,132.1-200.2"/>
	<path class="st3" d="M944,369.9c85.1-48.9,192-37.2,264.5,28.9"/>
	<path class="st1" d="M944.4,372.3c84.8,18.3,148.2,89,157.1,175.3"/>
	<path class="st3" d="M943.7,373.7c37,30.9,50.4,81.8,33.5,126.9"/>
	<path class="st1" d="M939.6,374.5C897.1,451.1,810,491.6,724,474.7"/>
	<path class="st3" d="M1079.4,168c46.7,15.9,78.2,59.6,78.6,108.9"/>
	<path class="st1" d="M1076.7,170.2c5,43.2-17.7,84.9-56.7,104.1"/>
	<path class="st6" d="M1072.9,166.9c-45.9-0.7-86.3-30.2-100.9-73.7"/>
	<path class="st3" d="M1101.2,553.3c-18,94.7-95.1,166.9-190.8,178.7"/>
	<path class="st3" d="M1103.2,553c26.2,45.7,20.3,103-14.5,142.5"/>
	<path class="st3" d="M978.5,501.7c79.5-47.4,180.5-38,249.8,23.3"/>
	<path class="st3" d="M1158.3,282.4c5.1,53.8-24.6,104.8-73.9,127"/>
	<path class="st7" d="M939.1,532.2C873.8,624.9,756,664.5,648,630"/>
	<path class="st8" d="M941.8,532.5c47.7,107.2,20.3,233-67.8,310.6"/>
	<path class="st1" d="M941.3,527.3c16-64.6,71.7-111.6,138-116.6"/>
	<path class="st2" d="M648.1,629.5c113,14.5,203.5,100.6,223.5,212.7"/>
	<path class="st4" d="M770.9,966.7"/>
	<path class="st3" d="M692.3,843.6"/>
	<path class="st3" d="M768.3,962.7"/>
	<path class="st3" d="M768.7,965.6c-37.8,29.1-89.8,31-129.7,4.8"/>
	<path class="st3" d="M635.6,971.4"/>
	<path class="st6" d="M607.4,731.2"/>
	<path class="st6" d="M689.8,840.1"/>
	<path class="st3" d="M760.7,714.1"/>
	<path class="st3" d="M692.1,838.1"/>
	<path class="st3" d="M721.9,513.3"/>
	<path class="st3" d="M671.2,616.7"/>
	<path class="st1" d="M905.4,730.4"/>
	<path class="st1" d="M765.4,711.7"/>
	<path class="st3" d="M909.3,734.7c41.2,52.8,44,126.1,6.9,181.9"/>
	<path class="st3" d="M909.5,730.2c45-47.9,115.6-61.5,175.1-33.9"/>
	<path class="st3" d="M916.3,921.1c27.2,38.2,27.2,89.4,0.1,127.7"/>
	<path class="st3" d="M914.7,921.6"/>
	<path class="st3" d="M915.4,1048.3"/>
	<path class="st3" d="M913.1,1053.2"/>
	<path class="st3" d="M179.5,337.7"/>
	<path class="st3" d="M1033.6,981"/>
</g>
<g id="node-labels">
	<text transform="matrix(1 0 0 1 446.0382 299.6404)" class="st9 st10 st11">Ortnit</text>
	<text transform="matrix(1 0 0 1 354.6981 267.1026)" class="st9 st10 st12">Virginal</text>
	<text transform="matrix(1 0 0 1 470.2593 616.0887)" class="st9 st10 st13">Eckenlied</text>
	<text transform="matrix(1 0 0 1 469.8258 384.9854)" class="st9 st10 st14">Wolfdietrich</text>
	<text transform="matrix(1 0 0 1 406.4902 389.0015)" class="st9 st10 st15">Laurin</text>
	<text transform="matrix(1 0 0 1 346.9816 622.2591)" class="st9 st10 st16">Sigenot</text>
	<text transform="matrix(1 0 0 1 305.2377 502.9199)" class="st17"><tspan x="0" y="0" class="st9 st10 st18">J</tspan><tspan x="11.3" y="0" class="st9 st19 st18">ü</tspan><tspan x="22.8" y="0" class="st9 st10 st18">ngeres Hildebrandslied</tspan></text>
	<text transform="matrix(1 0 0 1 629.8115 384.3436)" class="st9 st10 st12">Nibelungenlied</text>
	<text transform="matrix(1 0 0 1 683.2378 147.1641)" class="st9 st10 st12">Dietrichs Flucht</text>
	<text transform="matrix(1 0 0 1 858.0669 206.6568)" class="st9 st10 st15">Iwein</text>
	<text transform="matrix(1 0 0 1 813.9034 33.1434)" class="st17"><tspan x="0" y="0" class="st9 st10 st20">Diu Cr</tspan><tspan x="46.2" y="0" class="st9 st19 st20">ô</tspan><tspan x="54.4" y="0" class="st9 st10 st20">ne</tspan></text>
	<text transform="matrix(1 0 0 1 491.2367 25.8597)" class="st9 st10 st21">Biterolf und Dietleib</text>
	<text transform="matrix(1 0 0 1 478.5349 157.0568)" class="st9 st10 st21">Kudrun</text>
	<text transform="matrix(1 0 0 1 800.8546 303.9578)" class="st9 st10 st18">Erec</text>
	<text transform="matrix(1 0 0 1 414.0434 56.5386)" class="st9 st10 st22">Goldemar</text>
	<text transform="matrix(1 0 0 1 487.2599 846.4642)" class="st9 st10 st23">Rudolf von Ems</text>
	<text transform="matrix(1 0 0 1 904.3486 375.3033)" class="st9 st10 st21">Parzival</text>
	<text transform="matrix(1 0 0 1 1030.8129 161.5748)" class="st9 st10 st24">Tristan</text>
	<text transform="matrix(1 0 0 1 1183.4312 403.3265)" class="st9 st10 st22">Segremors</text>
	<text transform="matrix(1 0 0 1 1069.9514 554.3935)" class="st9 st10 st25">Wigalois</text>
	<text transform="matrix(1 0 0 1 946.5568 506.0556)" class="st9 st10 st26">Lohengrin</text>
	<text transform="matrix(1 0 0 1 669.3668 474.2444)" class="st9 st10 st26">Parzifal</text>
	<text transform="matrix(1 0 0 1 1129.6115 282.2702)" class="st9 st10 st27">Tristrant</text>
	<text transform="matrix(1 0 0 1 951.3675 278.2867)" class="st17"><tspan x="0" y="0" class="st9 st10 st20">Tristan als M</tspan><tspan x="93.3" y="0" class="st9 st19 st20">ö</tspan><tspan x="101.6" y="0" class="st9 st10 st20">nch</tspan></text>
	<text transform="matrix(1 0 0 1 793.5593 525.0129)" class="st9 st10 st28">Willehalm</text>
	<text transform="matrix(1 0 0 1 596.743 624.2236)" class="st9 st10 st29">Arabel</text>
	<text transform="matrix(1 0 0 1 776.4366 868.014)" class="st9 st10 st24">Rennewart</text>
	<text transform="matrix(1 0 0 1 1030.5642 413.7126)" class="st9 st10 st27">Karl der Große</text>
	<text transform="matrix(1 0 0 1 713.5068 968.1543)" class="st9 st10 st30">Trojanerkrieg</text>
	<text transform="matrix(1 0 0 1 587.9828 972.0573)" class="st9 st10 st27">Herzog Ernst B</text>
	<text transform="matrix(1 0 0 1 313.9916 138.1832)" class="st9 st10 st26">Daniel</text>
	<text transform="matrix(1 0 0 1 138.9157 465.8682)" class="st9 st10 st22">Crane</text>
	<text transform="matrix(1 0 0 1 870.7913 735.3754)" class="st9 st10 st31">Alexander</text>
	<text transform="matrix(1 0 0 1 889.3903 921.419)" class="st9 st10 st27">Eraclius</text>
	<text transform="matrix(1 0 0 1 997.0331 700.4598)" class="st9 st10 st26">Hartmann von Aue: Gregorius</text>
	<text transform="matrix(1 0 0 1 896.2755 1053.5272)" class="st9 st10 st27">Eneas</text>
	<text transform="matrix(1 0 0 1 1164.5198 528.9343)" class="st9 st10 st22">Friedrich von Schwaben</text>
	<text transform="matrix(1 0 0 1 806.8571 464.038)" class="st9 st10 st22">Mitteldr. Erec</text>
</g>
</svg>
